<?xml version="1.0" encoding="UTF-8" standalone="no"?>
<!-- Created with Inkscape (http://www.inkscape.org/) -->

<svg
   xmlns:dc="http://purl.org/dc/elements/1.1/"
   xmlns:cc="http://creativecommons.org/ns#"
   xmlns:rdf="http://www.w3.org/1999/02/22-rdf-syntax-ns#"
   xmlns:svg="http://www.w3.org/2000/svg"
   xmlns="http://www.w3.org/2000/svg"
   xmlns:sodipodi="http://sodipodi.sourceforge.net/DTD/sodipodi-0.dtd"
   xmlns:inkscape="http://www.inkscape.org/namespaces/inkscape"
   width="1220mm"
   height="610mm"
   viewBox="0 0 4322.8346 2161.4173"
   id="svg8254"
   version="1.1"
   inkscape:version="0.92.3 (unknown)"
   sodipodi:docname="stecchino1.svg">
  <defs
     id="defs8256" />
  <sodipodi:namedview
     id="base"
     pagecolor="#ffffff"
     bordercolor="#666666"
     borderopacity="1.0"
     inkscape:pageopacity="0.0"
     inkscape:pageshadow="2"
     inkscape:zoom="0.44675216"
     inkscape:cx="113.60473"
     inkscape:cy="1967.1676"
     inkscape:document-units="mm"
     inkscape:current-layer="layer1"
     showgrid="false"
     inkscape:window-width="1600"
     inkscape:window-height="847"
     inkscape:window-x="0"
     inkscape:window-y="0"
     inkscape:window-maximized="1" />
  <metadata
     id="metadata8259">
    <rdf:RDF>
      <cc:Work
         rdf:about="">
        <dc:format>image/svg+xml</dc:format>
        <dc:type
           rdf:resource="http://purl.org/dc/dcmitype/StillImage" />
        <dc:title />
      </cc:Work>
    </rdf:RDF>
  </metadata>
  <g
     inkscape:label="Layer 1"
     inkscape:groupmode="layer"
     id="layer1"
     transform="translate(0,1109.0551)">
    <path
       id="path9834-0"
       d="m 23.273,-787.54232 a 3.2430585,3.2430585 0 0 0 3.24306,-3.24306 3.2430585,3.2430585 0 0 0 -3.24306,-3.24306 3.2430585,3.2430585 0 0 0 -3.243061,3.24306 3.2430585,3.2430585 0 0 0 3.243061,3.24306 z"
       style="opacity:1;fill:none;fill-opacity:1;fill-rule:nonzero;stroke:#000000;stroke-width:0.35433069;stroke-linejoin:round;stroke-miterlimit:4;stroke-dasharray:none;stroke-opacity:1"
       inkscape:connector-curvature="0" />
    <path
       id="path9834-9-2"
       d="m 431.67853,-787.54232 a 3.2430585,3.2430585 0 0 0 3.24306,-3.24306 3.2430585,3.2430585 0 0 0 -3.24306,-3.24306 3.2430585,3.2430585 0 0 0 -3.24306,3.24306 3.2430585,3.2430585 0 0 0 3.24306,3.24306 z"
       style="opacity:1;fill:none;fill-opacity:1;fill-rule:nonzero;stroke:#000000;stroke-width:0.35433069;stroke-linejoin:round;stroke-miterlimit:4;stroke-dasharray:none;stroke-opacity:1"
       inkscape:connector-curvature="0" />
    <path
       id="path9834-2-9"
       d="m 840.08395,-787.54232 a 3.2430585,3.2430585 0 0 0 3.2431,-3.24306 3.2430585,3.2430585 0 0 0 -3.2431,-3.24306 3.2430585,3.2430585 0 0 0 -3.243,3.24306 3.2430585,3.2430585 0 0 0 3.243,3.24306 z"
       style="opacity:1;fill:none;fill-opacity:1;fill-rule:nonzero;stroke:#000000;stroke-width:0.35433069;stroke-linejoin:round;stroke-miterlimit:4;stroke-dasharray:none;stroke-opacity:1"
       inkscape:connector-curvature="0" />
    <path
       id="path9834-9-8-4"
       d="m 1248.4898,-787.54232 a 3.2430585,3.2430585 0 0 0 3.243,-3.24306 3.2430585,3.2430585 0 0 0 -3.243,-3.24306 3.2430585,3.2430585 0 0 0 -3.2431,3.24306 3.2430585,3.2430585 0 0 0 3.2431,3.24306 z"
       style="opacity:1;fill:none;fill-opacity:1;fill-rule:nonzero;stroke:#000000;stroke-width:0.35433069;stroke-linejoin:round;stroke-miterlimit:4;stroke-dasharray:none;stroke-opacity:1"
       inkscape:connector-curvature="0" />
    <path
       id="path9834-99-3"
       d="m 1656.895,-787.54232 a 3.2430585,3.2430585 0 0 0 3.2431,-3.24306 3.2430585,3.2430585 0 0 0 -3.2431,-3.24306 3.2430585,3.2430585 0 0 0 -3.243,3.24306 3.2430585,3.2430585 0 0 0 3.243,3.24306 z"
       style="opacity:1;fill:none;fill-opacity:1;fill-rule:nonzero;stroke:#000000;stroke-width:0.35433069;stroke-linejoin:round;stroke-miterlimit:4;stroke-dasharray:none;stroke-opacity:1"
       inkscape:connector-curvature="0" />
    <path
       id="path9834-9-89-5"
       d="m 2065.3007,-787.54232 a 3.2430585,3.2430585 0 0 0 3.243,-3.24306 3.2430585,3.2430585 0 0 0 -3.243,-3.24306 3.2430585,3.2430585 0 0 0 -3.2431,3.24306 3.2430585,3.2430585 0 0 0 3.2431,3.24306 z"
       style="opacity:1;fill:none;fill-opacity:1;fill-rule:nonzero;stroke:#000000;stroke-width:0.35433069;stroke-linejoin:round;stroke-miterlimit:4;stroke-dasharray:none;stroke-opacity:1"
       inkscape:connector-curvature="0" />
    <path
       inkscape:connector-curvature="0"
       style="display:inline;opacity:1;fill:none;fill-opacity:1;fill-rule:nonzero;stroke:#000000;stroke-width:0.35433072;stroke-linejoin:round;stroke-miterlimit:4;stroke-dasharray:none;stroke-opacity:1"
       d="m 258.73955,-700.69695 a 3.2430584,3.2430584 0 0 0 3.243,-3.2431 3.2430584,3.2430584 0 0 0 -3.243,-3.243 3.2430584,3.2430584 0 0 0 -3.2431,3.243 3.2430584,3.2430584 0 0 0 3.2431,3.2431 z"
       id="circle4245-1" />
    <path
       inkscape:connector-curvature="0"
       style="display:inline;opacity:1;fill:none;fill-opacity:1;fill-rule:nonzero;stroke:#000000;stroke-width:0.35433072;stroke-linejoin:round;stroke-miterlimit:4;stroke-dasharray:none;stroke-opacity:1"
       d="m 431.67855,-700.69695 a 3.2430584,3.2430584 0 0 0 3.243,-3.2431 3.2430584,3.2430584 0 0 0 -3.243,-3.243 3.2430584,3.2430584 0 0 0 -3.2431,3.243 3.2430584,3.2430584 0 0 0 3.2431,3.2431 z"
       id="circle4247-7" />
    <path
       inkscape:connector-curvature="0"
       style="display:inline;opacity:1;fill:none;fill-opacity:1;fill-rule:nonzero;stroke:#000000;stroke-width:0.35433072;stroke-linejoin:round;stroke-miterlimit:4;stroke-dasharray:none;stroke-opacity:1"
       d="m 840.08395,-700.69695 a 3.2430584,3.2430584 0 0 0 3.2431,-3.2431 3.2430584,3.2430584 0 0 0 -3.2431,-3.243 3.2430584,3.2430584 0 0 0 -3.243,3.243 3.2430584,3.2430584 0 0 0 3.243,3.2431 z"
       id="circle4249-4" />
    <path
       inkscape:connector-curvature="0"
       style="display:inline;opacity:1;fill:none;fill-opacity:1;fill-rule:nonzero;stroke:#000000;stroke-width:0.35433072;stroke-linejoin:round;stroke-miterlimit:4;stroke-dasharray:none;stroke-opacity:1"
       d="m 1248.4897,-700.69695 a 3.2430584,3.2430584 0 0 0 3.243,-3.2431 3.2430584,3.2430584 0 0 0 -3.243,-3.243 3.2430584,3.2430584 0 0 0 -3.2431,3.243 3.2430584,3.2430584 0 0 0 3.2431,3.2431 z"
       id="circle4251-3" />
    <path
       inkscape:connector-curvature="0"
       style="display:inline;opacity:1;fill:none;fill-opacity:1;fill-rule:nonzero;stroke:#000000;stroke-width:0.35433072;stroke-linejoin:round;stroke-miterlimit:4;stroke-dasharray:none;stroke-opacity:1"
       d="m 1656.8951,-700.69695 a 3.2430584,3.2430584 0 0 0 3.243,-3.2431 3.2430584,3.2430584 0 0 0 -3.243,-3.243 3.2430584,3.2430584 0 0 0 -3.2431,3.243 3.2430584,3.2430584 0 0 0 3.2431,3.2431 z"
       id="circle4253-1" />
    <path
       inkscape:connector-curvature="0"
       style="display:inline;opacity:1;fill:none;fill-opacity:1;fill-rule:nonzero;stroke:#000000;stroke-width:0.35433072;stroke-linejoin:round;stroke-miterlimit:4;stroke-dasharray:none;stroke-opacity:1"
       d="m 2065.3007,-700.69695 a 3.2430584,3.2430584 0 0 0 3.243,-3.2431 3.2430584,3.2430584 0 0 0 -3.243,-3.243 3.2430584,3.2430584 0 0 0 -3.2431,3.243 3.2430584,3.2430584 0 0 0 3.2431,3.2431 z"
       id="circle4255-4" />
    <path
       inkscape:connector-curvature="0"
       style="display:inline;opacity:1;fill:none;fill-opacity:1;fill-rule:nonzero;stroke:#000000;stroke-width:0.35433072;stroke-linejoin:round;stroke-miterlimit:4;stroke-dasharray:none;stroke-opacity:1"
       d="m 258.73955,-787.67105 a 3.2430584,3.2430584 0 0 0 3.243,-3.2431 3.2430584,3.2430584 0 0 0 -3.243,-3.243 3.2430584,3.2430584 0 0 0 -3.2431,3.243 3.2430584,3.2430584 0 0 0 3.2431,3.2431 z"
       id="circle4263-6" />
    <path
       inkscape:connector-curvature="0"
       style="display:inline;opacity:1;fill:none;fill-opacity:1;fill-rule:nonzero;stroke:#000000;stroke-width:0.35433072;stroke-linejoin:round;stroke-miterlimit:4;stroke-dasharray:none;stroke-opacity:1"
       d="m 58.16475,-537.49795 a 3.2430584,3.2430584 0 0 0 3.2431,-3.2431 3.2430584,3.2430584 0 0 0 -3.2431,-3.243 3.2430584,3.2430584 0 0 0 -3.2431,3.243 3.2430584,3.2430584 0 0 0 3.2431,3.2431 z"
       id="circle4263-9-9" />
    <path
       inkscape:connector-curvature="0"
       style="display:inline;opacity:1;fill:none;fill-opacity:1;fill-rule:nonzero;stroke:#000000;stroke-width:0.35433072;stroke-linejoin:round;stroke-miterlimit:4;stroke-dasharray:none;stroke-opacity:1"
       d="m 143.19435,-537.49795 a 3.2430584,3.2430584 0 0 0 3.243,-3.2431 3.2430584,3.2430584 0 0 0 -3.243,-3.243 3.2430584,3.2430584 0 0 0 -3.2431,3.243 3.2430584,3.2430584 0 0 0 3.2431,3.2431 z"
       id="circle4280-4" />
    <path
       inkscape:connector-curvature="0"
       style="display:inline;opacity:1;fill:none;fill-opacity:1;fill-rule:nonzero;stroke:#000000;stroke-width:0.35433072;stroke-linejoin:round;stroke-miterlimit:4;stroke-dasharray:none;stroke-opacity:1"
       d="m 220.06885,-537.49795 a 3.2430584,3.2430584 0 0 0 3.2431,-3.2431 3.2430584,3.2430584 0 0 0 -3.2431,-3.243 3.2430584,3.2430584 0 0 0 -3.243,3.243 3.2430584,3.2430584 0 0 0 3.243,3.2431 z"
       id="circle4282-2" />
    <path
       inkscape:connector-curvature="0"
       style="display:inline;opacity:1;fill:none;fill-opacity:1;fill-rule:nonzero;stroke:#000000;stroke-width:0.35433072;stroke-linejoin:round;stroke-miterlimit:4;stroke-dasharray:none;stroke-opacity:1"
       d="m 482.78245,-537.49795 a 3.2430584,3.2430584 0 0 0 3.2431,-3.2431 3.2430584,3.2430584 0 0 0 -3.2431,-3.243 3.2430584,3.2430584 0 0 0 -3.2431,3.243 3.2430584,3.2430584 0 0 0 3.2431,3.2431 z"
       id="circle4284-2" />
    <path
       inkscape:connector-curvature="0"
       style="display:inline;opacity:1;fill:none;fill-opacity:1;fill-rule:nonzero;stroke:#000000;stroke-width:0.35433072;stroke-linejoin:round;stroke-miterlimit:4;stroke-dasharray:none;stroke-opacity:1"
       d="m 2219.6023,-744.67295 a 3.2430584,3.2430584 0 0 0 3.2431,-3.243 3.2430584,3.2430584 0 0 0 -3.2431,-3.2431 3.2430584,3.2430584 0 0 0 -3.243,3.2431 3.2430584,3.2430584 0 0 0 3.243,3.243 z"
       id="circle4263-7-4" />
    <path
       style="display:inline;opacity:1;fill:none;fill-opacity:1;fill-rule:nonzero;stroke:#000000;stroke-width:0.35433072;stroke-linejoin:round;stroke-miterlimit:4;stroke-dasharray:none;stroke-opacity:1"
       d="m 146.86895,-675.99215 h 59.772 l 1.1243,0.048 c 6.1397,0.088 8.0968,-4.1192 7.92,-9.0098 l 0.01,-14.5427 v -46.7323 l -0.049,-1.1216 c 0,-14.7352 12.0742,-26.6805 26.9685,-26.6805 l 0.1073,-0.046 v -4.5962 h 52.6795 v 17.273 28.5114 18.0319 l -52.7679,-0.088 0.044,-5.7169 -0.063,-0.01 c -14.8942,0 -14.594,44.7116 7.7305,44.6558 l 1.0223,0.024 h 230.7722 l 0.3532,0.01 c 0.8223,-2.143 2.1255,-4.0206 3.7911,-5.6549 3.3312,-3.2687 8.0494,-5.3144 12.9569,-5.3144 h 0.1966 c 0,0 1086.19665,-0.05 1585.38645,-0.05 46.4405,0 134.5662,-36.0908 134.5662,-36.0908 6.2177,-2.3001 13.9652,-4.017 18.0368,-8.2208 4.0718,-4.2037 6.5889,-10.0105 6.5889,-16.4245 0,-6.414 -2.5171,-12.2207 -6.587,-16.424 -4.0699,-4.2033 -8.2781,-5.9192 -15.0189,-7.3335 l -2.3371,-0.705 c 0,0 -88.6949,-35.3892 -135.3179,-35.3892 -686.2248,0 -2058.50665,-0.077 -2058.50665,-0.077 l -0.8545,0.018 c -9.815,0 -17.7166,7.9015 -17.7166,17.7165 l 0.016,0.7754 v 10.5799 l 33.3264,233.4087 0.016,0.099 c 1.3437,9.5337 7.964,17.7556 17.779,17.7556 h 0.042 l 80.0779,-0.2348 0.069,3e-4 c 9.8149,0 17.7165,-7.9016 17.7165,-17.7166 l 3e-4,-0.088 0.01,-6.6254 -1.6498,2e-4 h -39.0788 c -1.963,0 -3.815,-0.7146 -5.0155,-2.0711 -0.6014,-0.6795 -0.7468,-0.8213 -1.2507,-1.643 h -0.3844 l -31.6238,-0.25 c 0,0 -0.147,-15.7463 -3.25,-22.75 -6.9281,-15.6375 -23.1059,-18.7974 -32.7497,-39.5 -10.4273,-22.3844 -12.4843,-49.7257 -10,-65.25 2.2257,-13.9092 10.5,-14.2236 10.5,-22.5 v -72.4588 h 161.6416 v 91.5703 0.1934 l -0.091,0.5355 -82.2676,-0.073 -2.6464,0.026 c -2.1485,0.01 -4.2449,1.241 -4.269,4.6474 -0.079,3.9505 1.3465,5.5001 4.5033,5.5224 2.0587,0.015 7.566,0.024 27.441,-0.022"
       id="rect4336-4-09-1"
       inkscape:connector-curvature="0"
       sodipodi:nodetypes="cccccccccccccccccccccsccscsssccscccccccccccccccsscccssssccccccccsc" />
    <path
       sodipodi:nodetypes="cscscccccccccccccccccccccc"
       inkscape:connector-curvature="0"
       id="path4496"
       d="m 463.81875,-587.77345 c 0.058,8.3652 -0.031,15.9795 -0.011,24.2671 0.021,8.6621 -1.4152,11.2194 -9.7028,11.201 -9.3692,-0.021 -24.9552,0.3322 -33.7925,0.3322 h -0.2693 -0.2982 -114.1331 -88.4885 -10.6299 l -0.01,0.2941 v 6.5897 0.091 c 0,9.815 7.9016,17.7166 17.7165,17.7166 h 0.1577 l 10.6299,-2e-4 244.4125,0.079 h 0.081 c 9.8149,0 17.8688,-8.1945 17.8688,-18.0095 l 6e-4,-0.1124 -0.044,-9.4585 -2.204,-15.078 -0.037,-0.3022 c -1.1269,-9.6602 -8.0707,-17.6208 -17.8857,-17.6208 l -0.1572,-0.012 -12.9078,0.045 z"
       style="display:inline;opacity:1;fill:none;fill-opacity:1;fill-rule:nonzero;stroke:#000000;stroke-width:0.35433072;stroke-linejoin:round;stroke-miterlimit:4;stroke-dasharray:none;stroke-opacity:1" />
    <path
       id="path9834-0-6-6-4"
       d="m 23.56058,-838.7719 a 3.2430582,3.2430582 0 0 1 3.24306,3.24306 3.2430582,3.2430582 0 0 1 -3.24306,3.24306 3.2430582,3.2430582 0 0 1 -3.24306,-3.24306 3.2430582,3.2430582 0 0 1 3.24306,-3.24306 z"
       style="opacity:1;fill:none;fill-opacity:1;fill-rule:nonzero;stroke:#030000;stroke-width:0.09;stroke-linejoin:round;stroke-miterlimit:4;stroke-dasharray:none;stroke-opacity:1"
       inkscape:connector-curvature="0" />
    <path
       id="path9834-9-2-8-5-9"
       d="m 431.96607,-838.7719 a 3.2430582,3.2430582 0 0 1 3.24306,3.24306 3.2430582,3.2430582 0 0 1 -3.24306,3.24306 3.2430582,3.2430582 0 0 1 -3.24306,-3.24306 3.2430582,3.2430582 0 0 1 3.24306,-3.24306 z"
       style="opacity:1;fill:none;fill-opacity:1;fill-rule:nonzero;stroke:#050000;stroke-width:0.09;stroke-linejoin:round;stroke-miterlimit:4;stroke-dasharray:none;stroke-opacity:1"
       inkscape:connector-curvature="0" />
    <path
       id="path9834-2-9-3-2-2"
       d="m 840.37145,-838.7719 a 3.2430582,3.2430582 0 0 1 3.2431,3.24306 3.2430582,3.2430582 0 0 1 -3.2431,3.24306 3.2430582,3.2430582 0 0 1 -3.243,-3.24306 3.2430582,3.2430582 0 0 1 3.243,-3.24306 z"
       style="opacity:1;fill:none;fill-opacity:1;fill-rule:nonzero;stroke:#030000;stroke-width:0.09;stroke-linejoin:round;stroke-miterlimit:4;stroke-dasharray:none;stroke-opacity:1"
       inkscape:connector-curvature="0" />
    <path
       id="path9834-9-8-4-8-6-5"
       d="m 1248.7773,-838.7719 a 3.2430582,3.2430582 0 0 1 3.243,3.24306 3.2430582,3.2430582 0 0 1 -3.243,3.24306 3.2430582,3.2430582 0 0 1 -3.2431,-3.24306 3.2430582,3.2430582 0 0 1 3.2431,-3.24306 z"
       style="opacity:1;fill:none;fill-opacity:1;fill-rule:nonzero;stroke:#030000;stroke-width:0.09;stroke-linejoin:round;stroke-miterlimit:4;stroke-dasharray:none;stroke-opacity:1"
       inkscape:connector-curvature="0" />
    <path
       id="path9834-99-3-3-5-7"
       d="m 1657.1825,-838.7719 a 3.2430582,3.2430582 0 0 1 3.2431,3.24306 3.2430582,3.2430582 0 0 1 -3.2431,3.24306 3.2430582,3.2430582 0 0 1 -3.243,-3.24306 3.2430582,3.2430582 0 0 1 3.243,-3.24306 z"
       style="opacity:1;fill:none;fill-opacity:1;fill-rule:nonzero;stroke:#030000;stroke-width:0.09;stroke-linejoin:round;stroke-miterlimit:4;stroke-dasharray:none;stroke-opacity:1"
       inkscape:connector-curvature="0" />
    <path
       id="path9834-9-89-5-3-8-4"
       d="m 2065.588,-838.7719 a 3.2430582,3.2430582 0 0 1 3.243,3.24306 3.2430582,3.2430582 0 0 1 -3.243,3.24306 3.2430582,3.2430582 0 0 1 -3.2431,-3.24306 3.2430582,3.2430582 0 0 1 3.2431,-3.24306 z"
       style="opacity:1;fill:none;fill-opacity:1;fill-rule:nonzero;stroke:#030000;stroke-width:0.09;stroke-linejoin:round;stroke-miterlimit:4;stroke-dasharray:none;stroke-opacity:1"
       inkscape:connector-curvature="0" />
    <path
       inkscape:connector-curvature="0"
       style="display:inline;opacity:1;fill:none;fill-opacity:1;fill-rule:nonzero;stroke:#030000;stroke-width:0.09000001;stroke-linejoin:round;stroke-miterlimit:4;stroke-dasharray:none;stroke-opacity:1"
       d="m 259.02715,-925.61725 a 3.2430584,3.2430584 0 0 1 3.2431,3.2431 3.2430584,3.2430584 0 0 1 -3.2431,3.2431 3.2430584,3.2430584 0 0 1 -3.243,-3.2431 3.2430584,3.2430584 0 0 1 3.243,-3.2431 z"
       id="circle4245-1-3-7-9" />
    <path
       inkscape:connector-curvature="0"
       style="display:inline;opacity:1;fill:none;fill-opacity:1;fill-rule:nonzero;stroke:#030000;stroke-width:0.09000001;stroke-linejoin:round;stroke-miterlimit:4;stroke-dasharray:none;stroke-opacity:1"
       d="m 431.96615,-925.61725 a 3.2430584,3.2430584 0 0 1 3.2431,3.2431 3.2430584,3.2430584 0 0 1 -3.2431,3.2431 3.2430584,3.2430584 0 0 1 -3.2431,-3.2431 3.2430584,3.2430584 0 0 1 3.2431,-3.2431 z"
       id="circle4247-7-8-9-9" />
    <path
       inkscape:connector-curvature="0"
       style="display:inline;opacity:1;fill:none;fill-opacity:1;fill-rule:nonzero;stroke:#030000;stroke-width:0.09000001;stroke-linejoin:round;stroke-miterlimit:4;stroke-dasharray:none;stroke-opacity:1"
       d="m 840.37155,-925.61725 a 3.2430584,3.2430584 0 0 1 3.2431,3.2431 3.2430584,3.2430584 0 0 1 -3.2431,3.2431 3.2430584,3.2430584 0 0 1 -3.243,-3.2431 3.2430584,3.2430584 0 0 1 3.243,-3.2431 z"
       id="circle4249-4-0-6-4" />
    <path
       inkscape:connector-curvature="0"
       style="display:inline;opacity:1;fill:none;fill-opacity:1;fill-rule:nonzero;stroke:#030000;stroke-width:0.09000001;stroke-linejoin:round;stroke-miterlimit:4;stroke-dasharray:none;stroke-opacity:1"
       d="m 1248.7771,-925.61725 a 3.2430584,3.2430584 0 0 1 3.243,3.2431 3.2430584,3.2430584 0 0 1 -3.243,3.2431 3.2430584,3.2430584 0 0 1 -3.2431,-3.2431 3.2430584,3.2430584 0 0 1 3.2431,-3.2431 z"
       id="circle4251-3-4-0-5" />
    <path
       inkscape:connector-curvature="0"
       style="display:inline;opacity:1;fill:none;fill-opacity:1;fill-rule:nonzero;stroke:#030000;stroke-width:0.09000001;stroke-linejoin:round;stroke-miterlimit:4;stroke-dasharray:none;stroke-opacity:1"
       d="m 1657.1825,-925.61725 a 3.2430584,3.2430584 0 0 1 3.243,3.2431 3.2430584,3.2430584 0 0 1 -3.243,3.2431 3.2430584,3.2430584 0 0 1 -3.2431,-3.2431 3.2430584,3.2430584 0 0 1 3.2431,-3.2431 z"
       id="circle4253-1-7-4-9" />
    <path
       inkscape:connector-curvature="0"
       style="display:inline;opacity:1;fill:none;fill-opacity:1;fill-rule:nonzero;stroke:#030000;stroke-width:0.09000001;stroke-linejoin:round;stroke-miterlimit:4;stroke-dasharray:none;stroke-opacity:1"
       d="m 2065.5881,-925.61725 a 3.2430584,3.2430584 0 0 1 3.243,3.2431 3.2430584,3.2430584 0 0 1 -3.243,3.2431 3.2430584,3.2430584 0 0 1 -3.2431,-3.2431 3.2430584,3.2430584 0 0 1 3.2431,-3.2431 z"
       id="circle4255-4-6-1-3" />
    <path
       inkscape:connector-curvature="0"
       style="display:inline;opacity:1;fill:none;fill-opacity:1;fill-rule:nonzero;stroke:#030000;stroke-width:0.09000001;stroke-linejoin:round;stroke-miterlimit:4;stroke-dasharray:none;stroke-opacity:1"
       d="m 259.02715,-838.64305 a 3.2430584,3.2430584 0 0 1 3.2431,3.243 3.2430584,3.2430584 0 0 1 -3.2431,3.2431 3.2430584,3.2430584 0 0 1 -3.243,-3.2431 3.2430584,3.2430584 0 0 1 3.243,-3.243 z"
       id="circle4263-6-8-0-5" />
    <path
       inkscape:connector-curvature="0"
       style="display:inline;opacity:1;fill:none;fill-opacity:1;fill-rule:nonzero;stroke:#030000;stroke-width:0.09000001;stroke-linejoin:round;stroke-miterlimit:4;stroke-dasharray:none;stroke-opacity:1"
       d="m 58.45245,-1088.8161 a 3.2430584,3.2430584 0 0 1 3.243,3.243 3.2430584,3.2430584 0 0 1 -3.243,3.2431 3.2430584,3.2430584 0 0 1 -3.2431,-3.2431 3.2430584,3.2430584 0 0 1 3.2431,-3.243 z"
       id="circle4263-9-9-9-4-7" />
    <path
       inkscape:connector-curvature="0"
       style="display:inline;opacity:1;fill:none;fill-opacity:1;fill-rule:nonzero;stroke:#030000;stroke-width:0.09000001;stroke-linejoin:round;stroke-miterlimit:4;stroke-dasharray:none;stroke-opacity:1"
       d="m 143.48195,-1088.8161 a 3.2430584,3.2430584 0 0 1 3.2431,3.243 3.2430584,3.2430584 0 0 1 -3.2431,3.2431 3.2430584,3.2430584 0 0 1 -3.243,-3.2431 3.2430584,3.2430584 0 0 1 3.243,-3.243 z"
       id="circle4280-4-0-8-0" />
    <path
       inkscape:connector-curvature="0"
       style="display:inline;opacity:1;fill:none;fill-opacity:1;fill-rule:nonzero;stroke:#030000;stroke-width:0.09000001;stroke-linejoin:round;stroke-miterlimit:4;stroke-dasharray:none;stroke-opacity:1"
       d="m 220.35655,-1088.8161 a 3.2430584,3.2430584 0 0 1 3.243,3.243 3.2430584,3.2430584 0 0 1 -3.243,3.2431 3.2430584,3.2430584 0 0 1 -3.2431,-3.2431 3.2430584,3.2430584 0 0 1 3.2431,-3.243 z"
       id="circle4282-2-6-7-8" />
    <path
       inkscape:connector-curvature="0"
       style="display:inline;opacity:1;fill:none;fill-opacity:1;fill-rule:nonzero;stroke:#030000;stroke-width:0.09000001;stroke-linejoin:round;stroke-miterlimit:4;stroke-dasharray:none;stroke-opacity:1"
       d="m 483.07005,-1088.8161 a 3.2430584,3.2430584 0 0 1 3.2431,3.243 3.2430584,3.2430584 0 0 1 -3.2431,3.2431 3.2430584,3.2430584 0 0 1 -3.243,-3.2431 3.2430584,3.2430584 0 0 1 3.243,-3.243 z"
       id="circle4284-2-8-0-1" />
    <path
       inkscape:connector-curvature="0"
       style="display:inline;opacity:1;fill:none;fill-opacity:1;fill-rule:nonzero;stroke:#030000;stroke-width:0.09000001;stroke-linejoin:round;stroke-miterlimit:4;stroke-dasharray:none;stroke-opacity:1"
       d="m 2219.8898,-881.64125 a 3.2430584,3.2430584 0 0 1 3.2431,3.2431 3.2430584,3.2430584 0 0 1 -3.2431,3.243 3.2430584,3.2430584 0 0 1 -3.243,-3.243 3.2430584,3.2430584 0 0 1 3.243,-3.2431 z"
       id="circle4263-7-4-7-8-9" />
    <path
       style="display:inline;opacity:1;fill:none;fill-opacity:1;fill-rule:nonzero;stroke:#000000;stroke-width:0.35433072;stroke-linejoin:round;stroke-miterlimit:4;stroke-dasharray:none;stroke-opacity:1"
       d="m 250.75095,-950.31515 231.6743,-0.01 0.3532,-0.01 c 0.8224,2.143 2.1256,4.0206 3.7912,5.6549 3.3311,3.2687 8.0493,5.3144 12.9568,5.3144 h 0.1967 c 0,0 1086.19635,0.05 1585.38625,0.05 46.4406,0 134.5662,36.0908 134.5662,36.0908 6.2177,2.3001 13.9652,4.017 18.0369,8.2207 4.0718,4.2038 6.5889,10.0105 6.5889,16.4245 0,6.414 -2.5171,12.2208 -6.5871,16.4241 -4.0698,4.2033 -8.278,5.9192 -15.0188,7.3334 l -2.3371,0.7051 c 0,0 -88.6949,35.3892 -135.3178,35.3892 -686.2251,0 -2058.50665,0.077 -2058.50665,0.077 l -0.8545,-0.018 c -9.815,0 -17.7166,-7.9016 -17.7166,-17.7165 l 0.016,-0.7754 v -10.5793 l 33.3271,-233.40855 0.016,-0.099 c 1.3438,-9.5337 7.9641,-17.7556 17.779,-17.7556 h 0.042 l 80.0779,0.2348 0.069,-3e-4 c 9.8149,0 17.7165,7.9016 17.7165,17.7165 l 3e-4,0.088 v 6.6255 l -1.6499,-2e-4 h -39.0787 c -1.963,0 -3.815,0.7146 -5.0155,2.0711 -0.6014,0.6795 -0.7468,0.8212 -1.2507,1.643 h -0.3844 l -31.6238,0.25 c 0,0 -0.1469,15.7463 -3.25,22.75 -6.9284,15.6375 -23.1062,18.7973 -32.75,39.4999 -10.4272,22.38435 -12.4842,49.72575 -10,65.25005 2.2258,13.9091 10.5,14.2235 10.5,22.5 v 72.458 h 161.6419 v -91.5704 -0.1934 l 0.028,-0.301 0.023,-0.2444 0.047,0.031 c 6.8469,0 11.7622,5.0603 11.7622,11.6303 l 0.01,0.047 v 48.5 l -0.049,1.1216 c 0,14.7352 12.0742,26.6805 26.9685,26.6805 l 0.1073,0.046 v 4.5962 h 52.6795 v -3.773 l 0.067,-1.4682 H 2084.9478 v -52.306 H 295.78545 l -0.067,-1.2332 v -5.0319 l -52.7678,0.088 0.044,5.7169 -0.063,0.01 c -14.8943,0 -14.5057,-44.8 7.8189,-44.7441 z"
       id="path4592"
       inkscape:connector-curvature="0"
       sodipodi:nodetypes="ccccscscsssccscccccccscccccccsscccssssccccccccccccccccccccccccccc" />
    <path
       style="display:inline;opacity:1;fill:none;fill-opacity:1;fill-rule:nonzero;stroke:#040000;stroke-width:0.35433072;stroke-linejoin:round;stroke-miterlimit:4;stroke-dasharray:none;stroke-opacity:1"
       d="m 206.78125,-1074.3363 v -0.2942 -6.5896 -0.091 c 0,-9.815 7.9016,-17.7166 17.7166,-17.7166 h 0.1577 l 10.6299,2e-4 244.4124,-0.079 h 0.081 c 9.815,0 17.8689,8.1946 17.8689,18.0095 l 5e-4,0.1125 -0.044,9.4585 -2.204,15.078 -0.037,0.3021 c -1.1269,9.6603 -8.0707,17.6209 -17.8857,17.6209 l -0.1572,0.012 -8.314,-0.014 -3.2804,-0.072 -1.905,0.063 c 0.059,-8.3652 -0.031,-15.9795 -0.011,-24.2671 0.021,-8.6621 -1.4153,-11.2194 -9.7029,-11.201 -9.3691,0.021 -24.9551,-0.3322 -33.7925,-0.3322 h -0.2692 -114.1331 -88.4885 z"
       id="path4974-3-7-8"
       inkscape:connector-curvature="0"
       sodipodi:nodetypes="ccccscccsccccccccccscscccc" />
    <path
       style="display:inline;fill:none;stroke:#00fe00;stroke-width:0.35433072;stroke-miterlimit:4;stroke-dasharray:none;stroke-opacity:1"
       d="m 2151.8634,-728.11305 c -0.023,0.023 -2.9741,0.042 -6.5573,0.042 h -6.5148 v -0.5373 -0.5373 l 0.226,-0.02 0.2259,-0.02 -0.1605,-0.2168 c -0.6882,-0.9294 -0.3013,-2.2986 0.7531,-2.6649 0.6131,-0.2131 2.7565,-0.1596 3.2205,0.08 0.9045,0.4678 1.1656,1.7247 0.531,2.5561 l -0.2115,0.2771 h 1.9408 1.941 l -0.2198,-0.288 c -0.5118,-0.6704 -0.405,-1.7176 0.2338,-2.2947 0.4789,-0.4327 0.5043,-0.4371 2.6767,-0.4612 l 1.9575,-0.022 v 0.5423 0.5422 l -1.7463,0.02 c -1.6477,0.019 -1.756,0.027 -1.9217,0.1509 -0.325,0.2429 -0.4385,0.4559 -0.435,0.8167 0.01,0.3855 0.1719,0.6749 0.4951,0.8511 0.1739,0.095 0.4384,0.1132 1.9049,0.1318 l 1.703,0.022 v 0.4933 c 0,0.2714 -0.019,0.5124 -0.042,0.5358 z m -9.1425,-2.5743 c -0.2246,-0.3357 -0.6164,-0.4466 -1.4786,-0.4186 -0.4548,0.015 -0.7835,0.059 -0.9378,0.1247 -0.6248,0.268 -0.6669,1.2274 -0.071,1.618 0.1376,0.09 0.3371,0.1197 0.928,0.1375 0.4139,0.012 0.8511,0.01 0.9718,-0.019 0.2451,-0.046 0.5888,-0.3066 0.6705,-0.5083 0.1075,-0.2657 0.068,-0.7089 -0.082,-0.9349 z m 9.1289,-3.3035 c -0.3165,0.9722 -1.341,1.411 -2.2324,0.9562 -0.2867,-0.1462 -0.5526,-0.4659 -0.6766,-0.8133 -0.055,-0.1553 -0.086,-0.5563 -0.088,-1.1461 l -0.01,-0.9072 h -0.3465 c -0.4738,0 -0.6498,0.1566 -0.7408,0.6593 -0.085,0.4697 -0.025,0.8412 0.1772,1.1111 l 0.1585,0.2106 -0.167,0.2351 c -0.092,0.1292 -0.2364,0.3198 -0.3216,0.4234 l -0.1546,0.1884 -0.2562,-0.2692 c -0.335,-0.3522 -0.4736,-0.8121 -0.4736,-1.5719 0,-0.819 0.142,-1.2555 0.5316,-1.6324 0.4233,-0.41 0.5944,-0.4367 2.8057,-0.4367 h 1.8432 v 0.5412 0.5411 h -0.1942 -0.1943 l 0.177,0.2322 c 0.1634,0.2142 0.1783,0.2817 0.1921,0.8754 0.01,0.3537 -0.01,0.715 -0.037,0.8028 z m -1.0258,-1.5591 c -0.078,-0.2062 -0.4064,-0.3513 -0.7942,-0.3513 h -0.2885 v 0.7342 c 0,0.8578 0.077,1.1132 0.3741,1.2362 0.2691,0.1114 0.5644,-0.01 0.6815,-0.2783 0.1004,-0.2306 0.118,-1.1017 0.027,-1.3408 z m 1.0021,-2.4812 c -0.044,0.017 -1.197,0.023 -2.5625,0.014 l -2.4827,-0.017 -0.019,-0.5252 -0.019,-0.5253 h 0.2568 0.2567 l -0.2125,-0.2784 c -0.2435,-0.3191 -0.3915,-0.9146 -0.322,-1.2964 0.046,-0.2536 0.3178,-0.8444 0.3884,-0.8444 0.023,0 0.2157,0.1483 0.4285,0.3295 0.2129,0.1813 0.4091,0.348 0.4361,0.3707 0.027,0.023 -0.01,0.1771 -0.084,0.3432 -0.2213,0.5002 -0.064,0.976 0.4069,1.2339 0.1737,0.095 0.4355,0.1129 1.9043,0.1307 l 1.703,0.02 v 0.5066 c 0,0.3472 -0.026,0.5163 -0.08,0.5373 z m -0.085,-4.3761 c -0.1961,0.3932 -0.5191,0.6771 -0.9154,0.8042 -0.7088,0.2274 -2.724,0.1762 -3.2303,-0.082 -0.8853,-0.4516 -1.1467,-1.6198 -0.5583,-2.4944 l 0.2129,-0.3162 h -1.269 -1.269 v -0.5416 -0.5417 l 3.581,0.016 3.5812,0.016 0.019,0.5252 0.019,0.5252 h -0.2605 -0.2604 l 0.1604,0.2103 c 0.4046,0.5306 0.482,1.2931 0.1905,1.8782 z m -1.086,-1.717 c -0.2321,-0.2563 -0.5346,-0.3323 -1.3275,-0.3334 -0.6322,0 -0.8071,0.02 -1.0144,0.1237 -0.3697,0.1839 -0.5089,0.4098 -0.5089,0.825 0,0.4149 0.139,0.6407 0.5089,0.8256 0.2053,0.1027 0.3823,0.1254 0.9826,0.1258 0.7904,5e-4 1.109,-0.072 1.3257,-0.3029 0.2616,-0.2785 0.2807,-0.9908 0.034,-1.2638 z m 1.2059,-3.5359 c -0.028,0.016 -1.1535,0.3804 -2.5016,0.8093 -1.348,0.4289 -2.4869,0.7935 -2.5307,0.8103 -0.06,0.023 -0.08,-0.1111 -0.08,-0.5463 v -0.5768 l 0.2387,-0.067 c 0.1312,-0.037 0.8904,-0.2438 1.687,-0.46 0.7967,-0.2162 1.4483,-0.4111 1.4483,-0.433 0,-0.022 -0.752,-0.2828 -1.6711,-0.5797 l -1.6712,-0.5399 v -0.4017 -0.4016 l 1.7002,-0.5486 c 0.9351,-0.3018 1.6877,-0.5611 1.6725,-0.5763 -0.015,-0.015 -0.7802,-0.2331 -1.7001,-0.4845 l -1.6726,-0.4569 -0.019,-0.5525 c -0.015,-0.452 0,-0.5524 0.075,-0.5524 0.051,0 0.5325,0.1409 1.0689,0.3132 0.5364,0.1723 1.6557,0.5318 2.4873,0.7989 l 1.512,0.4856 v 0.4628 0.4627 l -1.6712,0.497 c -0.9191,0.2733 -1.6912,0.5149 -1.7158,0.5369 -0.025,0.022 0.7203,0.2692 1.6553,0.5493 l 1.6999,0.5092 0.019,0.4561 c 0.01,0.2509 -0.01,0.4695 -0.032,0.4857 z m -0.064,-6.6241 c -0.1924,0.5769 -0.7776,0.9992 -1.3875,1.0012 -0.6507,0 -1.1044,-0.2555 -1.3876,-0.788 -0.1219,-0.2294 -0.1413,-0.3817 -0.161,-1.2706 l -0.024,-1.0099 -0.3785,0.028 c -0.471,0.034 -0.6025,0.1524 -0.6935,0.6242 -0.09,0.4655 -0.024,0.9142 0.1668,1.1413 0.084,0.1 0.1529,0.2014 0.1529,0.2256 0,0.069 -0.5861,0.7971 -0.6412,0.7971 -0.027,0 -0.1508,-0.1186 -0.275,-0.2636 -0.3209,-0.3748 -0.4433,-0.7932 -0.4447,-1.519 0,-0.8162 0.1338,-1.2591 0.4946,-1.62 0.4362,-0.4363 0.5132,-0.449 2.7124,-0.449 h 1.9417 l 0.019,0.5252 0.019,0.5252 h -0.2414 c -0.2026,0 -0.2225,0.013 -0.1238,0.07 0.064,0.038 0.1714,0.1871 0.2374,0.3323 0.1527,0.3364 0.1601,1.2103 0.014,1.6484 z m -1.0056,-1.7347 c -0.1046,-0.2023 -0.398,-0.3172 -0.8115,-0.3178 l -0.2389,-4e-4 3e-4,0.7481 c 10e-5,0.5849 0.024,0.7965 0.1113,0.9701 0.1995,0.3981 0.6795,0.4228 0.9088,0.047 0.1597,-0.2618 0.1784,-1.16 0.03,-1.4468 z m -1.464,-2.4191 h -2.5785 v -0.5411 -0.5411 h 0.2657 0.2658 l -0.13,-0.1433 c -0.5015,-0.5525 -0.579,-1.3963 -0.188,-2.0443 l 0.147,-0.2436 0.4405,0.368 c 0.2422,0.2024 0.4509,0.3755 0.4636,0.3846 0.013,0.01 -0.041,0.1489 -0.119,0.3106 -0.2228,0.4599 -0.1061,0.8692 0.343,1.2049 0.1659,0.1239 0.2733,0.1323 1.9219,0.15 l 1.7461,0.019 v 0.5383 0.5383 h -2.5781 z m 2.5172,-4.9868 c -0.1088,0.4567 -0.498,0.9479 -0.9576,1.2086 -0.7351,0.4169 -2.1666,0.4309 -3.024,0.03 -0.8648,-0.4046 -1.285,-1.2297 -1.1121,-2.1835 0.1294,-0.7126 0.502,-1.2045 1.144,-1.5094 0.3035,-0.1443 0.4496,-0.1692 1.0981,-0.1876 l 0.748,-0.021 v 1.5722 1.5721 l 0.2389,-0.044 c 0.5667,-0.1038 0.9041,-0.5121 0.906,-1.0963 0,-0.3793 -0.067,-0.5917 -0.2964,-0.9255 l -0.163,-0.2369 0.2601,-0.3107 c 0.4278,-0.511 0.4119,-0.5078 0.7005,-0.1426 0.3733,0.4723 0.5199,0.9162 0.5119,1.5503 -0.01,0.2875 -0.028,0.6136 -0.055,0.7245 z m -3.1405,-1.5704 c -0.298,0 -0.7063,0.2718 -0.8606,0.5729 -0.3165,0.6175 0.05,1.301 0.7675,1.4342 l 0.2388,0.044 v -1.0257 -1.0257 h -0.1457 z m -4.8431,40.4292 c -0.153,0.5673 -0.5574,1.035 -1.1197,1.2953 -0.2597,0.1201 -0.4052,0.134 -1.4038,0.134 -1.0037,0 -1.1433,-0.014 -1.4084,-0.136 -0.6927,-0.3204 -1.1312,-0.9609 -1.1863,-1.7334 -0.073,-1.0232 0.4777,-1.8817 1.3851,-2.158 0.4432,-0.135 1.8517,-0.1502 2.3375,-0.025 1.0957,0.2818 1.7137,1.4436 1.3956,2.6233 z m -1.1669,-1.1994 c -0.2673,-0.3588 -0.4842,-0.4271 -1.3566,-0.4271 -0.6813,0 -0.8269,0.019 -1.012,0.1273 -0.3254,0.1917 -0.4697,0.4259 -0.4985,0.8091 -0.035,0.4558 0.1188,0.7344 0.5113,0.9321 0.2585,0.13 0.3892,0.1496 0.9992,0.1496 0.61,0 0.7408,-0.02 0.9993,-0.1496 0.3926,-0.1977 0.5453,-0.4763 0.5111,-0.9321 -0.015,-0.2057 -0.075,-0.4041 -0.1538,-0.5093 z m 1.1929,-8.7033 c -0.1381,0.5544 -0.5281,1.0858 -0.9574,1.3048 -0.399,0.2036 -0.9787,0.3186 -1.6013,0.3178 -1.2915,0 -2.1295,-0.4672 -2.4714,-1.3732 -0.276,-0.7315 -0.071,-1.6765 0.4822,-2.2203 0.4306,-0.4233 0.8329,-0.5647 1.696,-0.5961 l 0.7482,-0.027 v 1.5677 1.5675 h 0.1455 c 0.08,0 0.2736,-0.064 0.4298,-0.1432 0.5972,-0.3012 0.7448,-1.0961 0.328,-1.7666 -0.1118,-0.1798 -0.2032,-0.3481 -0.2032,-0.3741 0,-0.026 0.1402,-0.2032 0.3116,-0.3937 l 0.3116,-0.3464 0.172,0.1592 c 0.522,0.4831 0.8014,1.5501 0.6084,2.3237 z m -3.1726,-1.4961 c -0.1905,0 -0.6666,0.2755 -0.8055,0.4662 -0.1836,0.2519 -0.1836,0.8547 1e-4,1.1008 0.1938,0.2596 0.415,0.405 0.682,0.4484 l 0.2373,0.038 v -1.027 c 0,-0.9439 -0.01,-1.0269 -0.1139,-1.0269 z m 3.168,-10.2534 c -0.076,0.361 -0.4461,1.1194 -0.6785,1.3903 l -0.1793,0.2089 -0.372,-0.3758 -0.3718,-0.3758 0.227,-0.2974 c 0.6842,-0.8963 0.4755,-2.4367 -0.3036,-2.2412 -0.2323,0.058 -0.3324,0.3161 -0.3864,0.9943 -0.1098,1.3796 -0.5479,1.9274 -1.5369,1.9218 -1.1724,-0.01 -1.7983,-1.1342 -1.464,-2.6368 0.085,-0.3828 0.4067,-1.0758 0.5791,-1.2483 0.03,-0.03 0.1919,0.086 0.5363,0.3831 l 0.2717,0.2343 -0.2006,0.4076 c -0.3748,0.761 -0.3254,1.5635 0.1072,1.7442 0.4208,0.1759 0.6129,-0.1053 0.6817,-0.9969 0.069,-0.8974 0.1429,-1.1256 0.4741,-1.4664 0.3731,-0.3839 0.8272,-0.5115 1.3961,-0.3921 0.4774,0.1001 0.7605,0.3375 1.0235,0.8583 0.1909,0.3781 0.2181,0.4949 0.2357,1.0161 0.01,0.3239 -0.01,0.7162 -0.04,0.8718 z m -0.036,-4.7414 c -0.2103,0.6569 -0.7258,1.1488 -1.3806,1.3172 -0.1913,0.05 -0.6697,0.086 -1.128,0.086 -0.9057,0 -1.3338,-0.087 -1.7363,-0.3538 -1.0471,-0.6936 -1.1674,-2.4271 -0.2272,-3.2765 0.5043,-0.4555 0.7063,-0.5078 1.9635,-0.5078 1.2572,0 1.4593,0.052 1.9636,0.5078 0.5476,0.4947 0.7866,1.472 0.545,2.2276 z m -1.0964,-1.1767 c -0.074,-0.1421 -0.22,-0.2743 -0.4057,-0.368 -0.2511,-0.1264 -0.3855,-0.146 -1.0002,-0.1454 -0.8982,0 -1.2021,0.1129 -1.4098,0.5203 -0.2546,0.499 -0.094,1.0779 0.376,1.353 0.4156,0.2434 1.7335,0.2165 2.1225,-0.043 0.4087,-0.2729 0.5517,-0.867 0.3172,-1.3165 z m 1.1288,-3.651 c -0.1189,0.4099 -0.4525,0.8062 -0.8493,1.0086 l -0.3771,0.1923 -1.9305,0.02 -1.9306,0.02 v -0.5452 -0.5454 h 1.6417 c 1.5774,0 1.6527,-0.01 1.9212,-0.1433 0.6824,-0.3499 0.6834,-1.2673 0,-1.6677 -0.2064,-0.1212 -0.3444,-0.1323 -1.8938,-0.1521 l -1.6711,-0.021 v -0.5039 -0.5038 h 2.5465 2.5466 v 0.5093 0.5093 h -0.2667 -0.2666 l 0.1674,0.1751 c 0.3737,0.391 0.5245,1.0808 0.3602,1.6479 z m -0.019,-8.8578 c -0.2225,0.7016 -0.6671,1.1935 -1.302,1.4409 -0.725,0.2824 -2.04,0.2257 -2.7064,-0.1166 -1.0533,-0.541 -1.4431,-2.1278 -0.786,-3.199 0.1627,-0.2649 0.4857,-0.64 0.5514,-0.64 0.026,0 0.1975,0.1722 0.3805,0.3827 l 0.333,0.3827 -0.1739,0.2062 c -0.3613,0.4286 -0.4423,0.9418 -0.2243,1.4221 0.2098,0.462 0.6349,0.6621 1.4066,0.6621 0.7717,0 1.1969,-0.2001 1.4068,-0.6621 0.2179,-0.4803 0.1371,-0.9935 -0.2244,-1.4221 l -0.1737,-0.2062 0.3327,-0.3827 c 0.1833,-0.2105 0.352,-0.3827 0.3753,-0.3827 0.056,0 0.3304,0.3015 0.504,0.5546 0.351,0.5122 0.4841,1.3803 0.3004,1.9601 z m -0.029,-4.19 c -0.1634,0.4727 -0.3997,0.7991 -0.743,1.0266 -1.0152,0.6724 -2.9612,0.5567 -3.7642,-0.2236 -0.6965,-0.6769 -0.7892,-1.8236 -0.215,-2.6582 0.4368,-0.6347 0.9582,-0.8623 1.9762,-0.8623 h 0.6996 v 1.5598 c 0,1.7328 -0.024,1.6512 0.4319,1.4608 0.4768,-0.1991 0.7148,-0.5705 0.7124,-1.1107 0,-0.2354 -0.1934,-0.7199 -0.3578,-0.9015 -0.129,-0.1426 -0.076,-0.2746 0.2612,-0.6505 l 0.2788,-0.3106 0.2122,0.2411 c 0.1167,0.1326 0.2604,0.3203 0.3196,0.4171 0.3067,0.5021 0.3926,1.4203 0.1881,2.012 z m -3.2385,-1.6134 c -0.2669,0.043 -0.4882,0.1888 -0.682,0.4484 -0.1855,0.2485 -0.184,0.8502 0.01,1.1008 0.1582,0.212 0.4221,0.3731 0.7096,0.4331 l 0.2069,0.043 v -1.032 -1.032 l -0.2372,0.038 z m 0.7465,32.5737 h -2.5465 v -0.5411 -0.5411 h 0.2338 0.234 l -0.1412,-0.1503 c -0.078,-0.083 -0.1971,-0.2978 -0.2656,-0.4781 -0.3174,-0.835 0.033,-1.7785 0.8076,-2.1741 0.3064,-0.1564 0.3267,-0.158 2.2667,-0.1772 l 1.9578,-0.019 v 0.5446 0.5445 h -1.6419 c -1.5759,0 -1.6531,0.01 -1.9257,0.1433 -0.3668,0.1849 -0.524,0.4736 -0.4875,0.896 0.031,0.3595 0.1901,0.604 0.4945,0.7591 0.1913,0.098 0.4242,0.1113 1.8893,0.1114 l 1.6713,10e-5 v 0.5411 0.5412 h -2.5466 z m 0,-21.8364 h -2.5465 v -0.5412 -0.5411 h 0.2231 0.2233 l -0.1823,-0.2516 c -0.2376,-0.328 -0.3505,-0.746 -0.3156,-1.1673 0.032,-0.3896 0.2793,-0.9525 0.4055,-0.924 0.046,0.011 0.271,0.1737 0.4986,0.3626 l 0.4139,0.3434 -0.1309,0.2567 c -0.243,0.4759 -0.069,1.031 0.3969,1.2687 0.1913,0.098 0.4242,0.1113 1.8893,0.1114 l 1.6713,10e-5 v 0.5411 0.5412 z m -8.1992,25.7374 c -0.9732,0.9708 -1.804,1.7651 -1.8463,1.7651 -0.073,0 -1.1593,-0.7224 -3.098,-2.0607 -0.4885,-0.3372 -0.9326,-0.6132 -0.9867,-0.6133 -0.1603,-2e-4 -3.6536,1.409 -3.7753,1.523 -0.082,0.078 -0.2187,0.6865 -0.5328,2.3944 -0.3449,1.8741 -0.4445,2.3101 -0.5481,2.4013 -0.116,0.1019 -0.3336,0.1114 -2.5661,0.1114 -2.1327,0 -2.452,-0.012 -2.5395,-0.1 -0.055,-0.055 -0.1,-0.1195 -0.1,-0.1433 0,-0.024 -0.188,-1.0602 -0.4183,-2.3032 -0.2718,-1.4687 -0.4564,-2.3135 -0.5273,-2.4127 -0.1436,-0.2012 -3.4652,-1.6249 -3.6638,-1.5704 -0.073,0.02 -1.0036,0.6357 -2.0668,1.3678 -1.063,0.732 -1.9939,1.3469 -2.0683,1.3663 -0.1114,0.029 -0.45,-0.2784 -1.9027,-1.7277 -1.2151,-1.2123 -1.7672,-1.8058 -1.7672,-1.8996 0,-0.075 0.6301,-1.0548 1.4005,-2.1774 0.7703,-1.1226 1.4005,-2.0912 1.4005,-2.1522 0,-0.061 -0.2461,-0.715 -0.5469,-1.4529 -0.7147,-1.753 -0.8526,-2.06 -0.9399,-2.0928 -0.04,-0.015 -1.1187,-0.2196 -2.3967,-0.4547 -1.278,-0.235 -2.4024,-0.4573 -2.4988,-0.4939 l -0.175,-0.066 v -2.5629 -2.5629 l 0.175,-0.066 c 0.096,-0.037 1.2208,-0.2582 2.4988,-0.4927 1.623,-0.2978 2.3576,-0.4583 2.4355,-0.5322 0.1247,-0.1184 1.4473,-3.2831 1.4478,-3.4644 1e-4,-0.064 -0.63,-1.0351 -1.4003,-2.1588 -0.7704,-1.1237 -1.4005,-2.1037 -1.4005,-2.1777 0,-0.091 0.5662,-0.6998 1.7672,-1.8979 1.4527,-1.4492 1.7913,-1.7568 1.9027,-1.7277 0.074,0.02 1.0053,0.6343 2.0683,1.3664 1.0632,0.7321 1.9933,1.3476 2.0668,1.3677 0.1986,0.055 3.5202,-1.3692 3.6638,-1.5703 0.07,-0.099 0.2555,-0.9441 0.5273,-2.4128 0.2303,-1.243 0.4183,-2.2794 0.4183,-2.3032 -1e-4,-0.024 0.045,-0.088 0.1,-0.1433 0.087,-0.087 0.4068,-0.1 2.5395,-0.1 2.2325,0 2.4501,0.01 2.5661,0.1114 0.1036,0.091 0.2032,0.5272 0.5481,2.4014 0.3141,1.7079 0.4496,2.3165 0.5328,2.3944 0.1217,0.1139 3.615,1.5231 3.7753,1.523 0.054,-2e-4 0.4982,-0.2761 0.9867,-0.6134 1.9387,-1.3383 3.0248,-2.0607 3.098,-2.0607 0.1381,0 3.6156,3.5195 3.6153,3.6591 -1e-4,0.071 -0.5623,0.9454 -1.2495,1.9433 -0.6872,0.9979 -1.2775,1.8757 -1.3118,1.9506 -0.051,0.1125 0.016,0.2838 0.3886,0.98 0.5604,1.0479 0.5607,1.0492 0.3775,1.1684 -0.301,0.196 -8.0213,3.3496 -8.1999,3.3496 -0.1285,0 -0.2097,-0.044 -0.2616,-0.1432 -0.1924,-0.3658 -0.8733,-1.2285 -1.2416,-1.5731 -1.0379,-0.9709 -2.1804,-1.4169 -3.6215,-1.4139 -2.0114,0.01 -3.8085,1.1612 -4.6747,3.0099 -0.3659,0.7805 -0.4738,1.2793 -0.4738,2.1893 0,0.9102 0.1079,1.4089 0.4738,2.1895 0.509,1.0865 1.367,1.9645 2.4304,2.4871 0.7584,0.3726 1.3953,0.5209 2.2443,0.5227 1.4411,0 2.5836,-0.443 3.6215,-1.4139 0.3683,-0.3446 1.0492,-1.2073 1.2416,-1.573 0.052,-0.099 0.1331,-0.1433 0.2616,-0.1433 0.1786,0 7.8989,3.1536 8.1999,3.3496 0.1832,0.1193 0.1829,0.1206 -0.3775,1.1684 -0.3725,0.6962 -0.4404,0.8676 -0.3886,0.98 0.034,0.075 0.6246,0.9527 1.3118,1.9506 0.6872,0.9979 1.2494,1.8724 1.2495,1.9433 2e-4,0.084 -0.615,0.7425 -1.769,1.894 z"
       id="path5916"
       inkscape:connector-curvature="0" />
    <path
       style="display:inline;fill:none;stroke:#00fe00;stroke-width:0.35433072;stroke-miterlimit:4;stroke-dasharray:none;stroke-opacity:1"
       d="m 2158.2818,-874.95095 c -0.5773,1.9211 -1.8309,1.5015 -1.5595,-0.522 0.088,-0.6535 0.084,-1.1882 -0.011,-1.1882 -0.094,0 -0.4731,0.5385 -0.8429,1.1967 -0.3699,0.6582 -0.9284,1.2779 -1.2409,1.3771 -1.6549,0.5252 -2.8871,-1.0119 -2.4882,-3.1038 0.1173,-0.616 0.1992,-1.5405 0.1817,-2.0543 -0.025,-0.7463 0.196,-1.1086 1.1,-1.8 l 1.1315,-0.8657 -1.2,-0.15 c -0.9445,-0.1181 -1.2197,-0.2884 -1.2925,-0.8001 -0.08,-0.5647 0.1164,-0.6928 1.5,-0.9751 0.8759,-0.1788 2.2583,-0.3588 3.072,-0.4 l 1.4795,-0.075 0.2606,1.2 c 0.3377,1.5544 0.057,3.0238 -0.7283,3.8088 l -0.6253,0.6253 0.6362,0.483 c 0.762,0.5786 1.0225,1.9265 0.6268,3.2432 z m -2.0694,-7.4102 c -0.4821,0 -0.5456,0.1209 -0.3464,0.6595 0.3553,0.9602 0.9368,1.0319 0.9368,0.1155 0,-0.5708 -0.1557,-0.775 -0.5904,-0.775 z m -0.4868,3.3 c -0.243,0 -0.5149,-0.1906 -0.6042,-0.4235 -0.137,-0.3571 -0.2956,-0.3471 -1.0111,0.063 -0.7055,0.4049 -0.7747,0.541 -0.4104,0.8074 0.3505,0.2562 0.3721,0.4941 0.1083,1.1882 -0.3604,0.948 -0.1905,1.8141 0.2969,1.5128 0.1687,-0.1042 0.4948,-0.6397 0.7248,-1.1901 0.2299,-0.5503 0.7024,-1.0908 1.0498,-1.201 0.6808,-0.2161 0.5707,-0.7574 -0.1541,-0.7574 z m 0.014,-5.5953 c -1.9821,0.4355 -2.3658,0.444 -3.0916,0.069 -0.9429,-0.4876 -1.5454,-1.603 -1.5454,-2.8609 0,-1.0846 1.1269,-2.0697 3.4431,-3.0098 1.8431,-0.748 2.2422,-0.611 2.2523,0.773 0,0.5086 -0.3237,0.7171 -1.749,1.1134 -1.8668,0.519 -2.6226,1.1189 -2.3394,1.857 0.2157,0.5619 1.097,0.5745 3.139,0.045 1.4525,-0.3768 1.5995,-0.3665 1.8654,0.1303 0.6024,1.1256 0.3415,1.3745 -1.9744,1.8834 z m -0.037,-6.6047 c -0.4701,0.4701 -1.0278,0.1214 -1.6,-1 -0.3367,-0.66 -0.7444,-1.2 -0.9061,-1.2 -0.3802,0 -0.3767,0.029 0.1657,1.3265 0.5081,1.216 0.3856,1.6735 -0.448,1.6735 -0.3446,0 -0.671,-0.339 -0.8666,-0.9 -0.1726,-0.495 -0.5233,-0.9 -0.7793,-0.9 -0.5898,0 -0.5883,0.3928 0.01,1.5419 0.545,1.0539 0.3848,1.7581 -0.3998,1.7581 -0.3651,0 -0.817,-0.5507 -1.3595,-1.6567 -0.4469,-0.9111 -0.8124,-1.7804 -0.8124,-1.9316 0,-0.1512 0.81,-0.7749 1.8,-1.386 0.99,-0.611 1.8,-1.2119 1.8,-1.3351 0,-0.1233 -0.2538,-0.5376 -0.564,-0.9206 l -0.564,-0.6965 -1.7321,1.3077 c -1.3391,1.0111 -1.8405,1.2393 -2.211,1.0061 -0.87,-0.5479 -0.6246,-1.1221 1.0395,-2.4318 l 1.6446,-1.2945 -0.5934,-0.8335 c -0.4493,-0.631 -0.5092,-0.9179 -0.2467,-1.1806 0.6172,-0.617 0.9624,-0.3828 2.6335,1.7871 0.904,1.1738 1.7985,2.2979 1.988,2.498 0.4115,0.4348 2.2056,3.9402 2.2056,4.3094 0,0.1422 -0.09,0.3486 -0.2001,0.4586 z m -0.4661,25.925 c -0.1791,0.3712 -0.4559,0.675 -0.6152,0.675 -0.376,0 -5.2993,-2.7978 -5.3103,-3.0177 0,-0.092 0.1772,-0.4215 0.404,-0.7317 0.3957,-0.5411 0.5234,-0.5108 3.15,0.7478 1.5057,0.7215 2.7285,1.3883 2.7173,1.4817 -0.011,0.093 -0.1668,0.4736 -0.3458,0.8449 z m -0.9874,-4.7851 c -0.3761,0.8656 -0.5065,0.9491 -1.0383,0.6645 -0.7055,-0.3777 -0.7392,-0.6496 -0.2479,-2.0081 0.2659,-0.7351 0.5411,-0.9963 1.05,-0.9963 0.8206,0 0.902,0.8071 0.2362,2.3399 z m -0.6951,7.3636 c -0.3887,0.3518 -1.1014,0.4965 -2.445,0.4965 h -1.8964 l 1.245,0.9019 c 0.6847,0.496 1.245,1.0262 1.245,1.1782 0,0.152 -0.3557,0.5561 -0.7905,0.8981 -0.4347,0.342 -0.7108,0.6218 -0.6136,0.6218 0.097,0 -0.1846,0.3614 -0.6262,0.8031 l -0.8033,0.8032 -1.7332,-0.9452 c -0.9533,-0.5198 -1.7332,-0.867 -1.7332,-0.7714 0,0.095 0.2102,0.985 0.4672,1.9767 0.4637,1.7895 0.462,1.8066 -0.225,2.2878 -0.3807,0.2667 -0.7445,0.442 -0.8086,0.3897 -0.064,-0.052 -0.1991,0.026 -0.3,0.1731 -0.3524,0.515 -4.2412,2.5137 -4.5362,2.3314 -0.686,-0.424 -0.2592,-1.2745 0.9026,-1.7984 0.66,-0.2976 1.2,-0.6477 1.2,-0.7779 0,-0.5316 -0.5476,-0.5075 -1.4898,0.065 -0.7997,0.4863 -1.0474,0.5279 -1.2492,0.2095 -0.4468,-0.7049 -0.2801,-1.1219 0.639,-1.5972 1.5468,-0.7998 1.0755,-1.5567 -0.5472,-0.8787 -1.2279,0.5131 -1.8545,0.3819 -1.8489,-0.3868 0,-0.3556 0.6078,-0.8244 1.8085,-1.401 0.9925,-0.4766 1.8524,-0.8141 1.9108,-0.75 0.059,0.064 0.7363,1.0953 1.5061,2.2915 0.7699,1.1963 1.439,2.175 1.487,2.175 0.048,0 -0.1579,-1.1137 -0.4574,-2.475 -0.6966,-3.1656 -0.6915,-3.7329 0.037,-4.1227 0.4609,-0.2466 0.865,-0.1814 1.7852,0.288 0.6542,0.3338 1.9049,0.8796 2.7793,1.213 l 1.5898,0.6062 -2.0721,-1.9967 c -1.6713,-1.6105 -2.0128,-2.09 -1.7658,-2.4797 0.2459,-0.3879 0.7426,-0.4649 2.5219,-0.3909 l 2.216,0.092 -1.4187,-0.9486 c -1.1914,-0.7965 -1.3714,-1.037 -1.1234,-1.5005 0.4822,-0.9013 0.7176,-0.8961 2.112,0.047 0.7316,0.4947 1.8364,1.1651 2.4551,1.4898 1.2481,0.655 1.3965,1.1395 0.5764,1.8817 z m -6.3347,-35.97 c -1.7804,1.7666 -2.1512,2.0113 -2.5489,1.6813 -0.3755,-0.3117 -0.4299,-0.7994 -0.2816,-2.5255 l 0.1836,-2.1393 -0.9609,1.275 c -1.053,1.3973 -1.163,1.4497 -1.8904,0.9 -0.4476,-0.3383 -0.3464,-0.6171 1.035,-2.85 0.8422,-1.3613 1.6888,-2.475 1.8815,-2.475 0.9804,0 1.3769,0.7622 1.4046,2.7002 l 0.028,1.9498 1.0148,-1.1731 c 0.9907,-1.1454 1.0288,-1.1602 1.6162,-0.6285 0.331,0.2995 0.6018,0.696 0.6018,0.8811 0,0.1851 -0.9375,1.2669 -2.0834,2.404 z m -4.0642,33.0165 c -1.4283,3.4904 -3.37,4.1112 -5.7691,1.8445 -0.9707,-0.9172 -1.3241,-1.4557 -1.188,-1.8105 0.1772,-0.4618 0.27,-0.4656 1.0843,-0.044 1.1303,0.5845 1.2203,0.5781 1.2203,-0.087 0,-0.6049 -1.1799,-1.8523 -1.7522,-1.8523 -0.4889,0 -3.0478,-2.5821 -3.0478,-3.0754 0,-0.2152 -0.2533,-0.6083 -0.5632,-0.8735 -0.347,-0.2971 -0.6901,-1.2153 -0.8937,-2.3917 -0.3331,-1.925 -0.2585,-2.8577 0.3254,-4.0708 0.2512,-0.5217 0.1984,-0.8385 -0.2493,-1.5 -0.7751,-1.1446 -0.7072,-4.9113 0.1216,-6.7508 0.9011,-2.0001 2.679,-3.7169 4.2592,-4.1128 1.7514,-0.4388 2.2262,-0.7182 2.3576,-1.3873 0.1455,-0.7407 -0.8159,-1.4457 -1.3579,-0.9959 -0.2199,0.1824 -0.3997,0.2311 -0.3997,0.1082 0,-0.1229 -0.1905,-0.065 -0.4233,0.1278 -0.2328,0.1933 -0.4971,0.2318 -0.5875,0.086 -0.305,-0.4935 0.6602,-1.4507 1.8631,-1.8477 1.0836,-0.3576 1.3219,-0.3334 2.5451,0.2588 1.0313,0.4993 1.5151,0.9862 2.0512,2.0644 0.6102,1.2277 0.6951,1.8073 0.6528,4.46 -0.057,3.6059 -0.3639,4.4066 -2.6106,6.8208 l -1.5757,1.6931 1.2326,1.2862 c 1.97,2.0561 3.0663,4.8911 3.3259,8.601 0.088,1.256 -0.06,2.0798 -0.6211,3.45 z m 0.4602,-38.8601 c -0.2374,0.3752 -0.461,0.3372 -1.5215,-0.2589 -0.8754,-0.4919 -1.3375,-0.6047 -1.5611,-0.381 -0.2239,0.2237 0.01,0.4722 0.776,0.8394 1.1153,0.5319 1.2828,0.848 0.8291,1.5639 -0.2108,0.3326 -0.4216,0.3173 -1.2042,-0.087 -0.8958,-0.4633 -1.531,-0.42 -1.531,0.1044 0,0.1293 0.4725,0.4895 1.05,0.8005 1.0682,0.5752 1.2279,0.8845 0.8027,1.5541 -0.3245,0.511 -3.9562,-1.0734 -3.9445,-1.7209 0,-0.2498 0.4072,-1.3901 0.8951,-2.534 0.4879,-1.1439 0.8381,-2.1287 0.7784,-2.1885 -0.06,-0.06 -0.9833,0.8499 -2.0525,2.0213 -1.6591,1.8179 -2.0517,2.1028 -2.6803,1.945 -0.6558,-0.1645 -0.8149,-0.5199 -1.4516,-3.2414 l -0.7151,-3.0566 -0.438,2.925 c -0.5396,3.6044 -0.9848,3.7861 -2.5736,1.0502 -1.018,-1.753 -1.419,-2.042 -1.1808,-0.8511 0.099,0.4971 0.093,1.2548 -0.015,1.6838 -0.1594,0.6352 -0.347,0.7625 -1.0103,0.6861 l -0.8145,-0.094 -0.086,-3.075 c -0.085,-3.0723 -0.085,-3.075 0.6369,-3.075 0.4697,0 1.1495,0.4634 1.9439,1.3252 l 1.2215,1.3253 0.092,-1.1003 c 0.086,-1.0296 0.1619,-1.1061 1.1867,-1.1916 0.6024,-0.05 1.5382,0.024 2.0797,0.1638 1.032,0.2674 1.2444,0.648 1.6251,2.9103 l 0.199,1.1827 1.4006,-1.5865 c 1.3384,-1.5161 1.4367,-1.57 2.2162,-1.2139 0.4486,0.205 0.7315,0.5088 0.6286,0.6752 -0.1064,0.172 -0.037,0.2099 0.1604,0.088 0.4051,-0.2504 4.5057,1.6278 4.5239,2.0719 0.01,0.165 -0.1129,0.498 -0.2659,0.7399 z m -4.828,53.801 c -0.7247,0.1895 -2.612,-0.6304 -3.2665,-1.419 -0.6731,-0.8112 -0.8465,-0.5222 -0.526,0.8776 0.1697,0.7423 0.2441,1.4141 0.1652,1.493 -0.2096,0.2096 -4.0198,0.7079 -6.1074,0.7987 -1.7546,0.076 -1.8023,0.058 -1.8949,-0.7315 -0.085,-0.7242 0,-0.8097 0.825,-0.8097 h 0.9199 v -2.4 c 0,-2.368 0.01,-2.4 0.7594,-2.4 0.8882,0 0.9366,0.1125 1.1919,2.763 l 0.1939,2.0129 0.9525,-0.181 c 0.5237,-0.1 0.9906,-0.2113 1.0375,-0.2482 0.074,-0.058 -0.185,-1.433 -0.6902,-3.6597 -0.1058,-0.4665 0.039,-0.7639 0.4857,-1.0034 0.5474,-0.293 0.7879,-0.1993 1.7276,0.6728 0.6004,0.5573 1.3837,1.2553 1.7405,1.5512 l 0.6489,0.538 -0.6255,-1.6981 c -0.5308,-1.4406 -0.5609,-1.7391 -0.1989,-1.9683 0.2347,-0.1485 0.5755,-0.2721 0.7574,-0.2746 0.3801,-0.01 2.1197,3.6221 2.3935,4.9913 0.1556,0.778 0.081,0.9459 -0.4895,1.095 z m -7.4665,-37.7409 c -0.4385,2.5443 -2.4518,5.1215 -5.0419,6.4539 -1.0849,0.5582 -1.546,0.6237 -3.1115,0.442 -2.1529,-0.2499 -2.4289,-0.022 -2.1864,1.8041 0.3492,2.6293 0.289,2.55 1.9373,2.55 1.9193,0 4.1328,1.0924 6.0061,2.9642 2.0829,2.0812 2.8046,5.2057 2.0821,9.0152 -0.3062,1.6153 -2.275,4.5346 -3.617,5.3635 -0.3498,0.2161 -1.8293,0.5261 -3.2877,0.6889 -2.9744,0.3321 -3.706,0.1491 -6.1629,-1.5413 -2.322,-1.5975 -3.0495,-2.8951 -3.2984,-5.883 -0.1257,-1.5107 -0.099,-2.6539 0.064,-2.7662 0.1531,-0.1052 0.444,-0.926 0.6464,-1.824 0.4367,-1.939 2.388,-4.661 3.5503,-4.9528 0.6981,-0.1752 0.7476,-0.2836 0.5276,-1.1539 -0.3089,-1.2214 -0.3411,-3.7313 -0.061,-4.7264 0.1811,-0.6424 0.072,-0.8504 -0.6755,-1.2923 -1.54,-0.9096 -3.6251,-4.4678 -4.17,-7.115 -0.1214,-0.5903 -0.3213,-1.2359 -0.4443,-1.4348 -0.3432,-0.5554 1.6065,-4.1565 2.8669,-5.2953 2.9983,-2.7087 6.8089,-3.4209 9.857,-1.8424 2.2334,1.1566 3.376,2.7781 4.1701,5.9188 0.6654,2.631 0.6734,2.7386 0.348,4.6268 z m -2.1296,18.5832 c -0.7572,-2.2082 -0.9533,-2.4637 -2.9327,-3.8205 -1.7262,-1.1832 -3.1546,-1.588 -4.5905,-1.3008 -3.6128,0.7226 -5.4573,3.8358 -4.7766,8.0625 0.825,5.1229 6.9619,7.4767 10.2659,3.9375 0.8507,-0.9113 2.6453,-4.1229 2.6453,-4.7341 0,-0.1987 -0.2752,-1.1638 -0.6114,-2.1446 z m -1.1946,2.9609 c -0.6472,0.2443 -0.8472,0.4724 -0.7001,0.7989 0.1132,0.2513 0.2172,0.862 0.231,1.357 0.021,0.7642 -0.098,0.9142 -0.7922,0.9942 -0.4495,0.052 -1.0538,-0.038 -1.3427,-0.1998 -0.4277,-0.2394 -0.5938,-0.1314 -0.8932,0.5808 -0.4731,1.1251 -1.67,1.1998 -2.3596,0.1473 -0.4212,-0.6428 -0.5799,-0.6916 -1.3632,-0.4185 -1.3333,0.4648 -1.8871,-0.1242 -1.6618,-1.7674 0.1357,-0.9903 0.079,-1.2866 -0.2465,-1.2866 -0.6011,0 -1.3657,-0.8423 -1.3657,-1.5045 0,-0.3089 0.3895,-0.7917 0.8655,-1.0729 0.7602,-0.449 0.8477,-0.6443 0.7189,-1.6044 -0.1008,-0.7517 -0.01,-1.2104 0.3058,-1.4686 0.521,-0.4324 2.0092,-0.1675 2.0109,0.3579 6e-4,0.1884 0.2687,-0.096 0.5956,-0.6325 0.8597,-1.4099 2.7033,-1.2347 2.7033,0.2569 0,0.4453 0.1351,0.4705 1.038,0.1933 1.6855,-0.5173 2.3152,0.372 1.5446,2.1817 -0.137,0.3221 0.073,0.558 0.7114,0.799 0.6968,0.263 0.906,0.5271 0.906,1.1441 0,0.6169 -0.2092,0.881 -0.906,1.1441 z m -0.8783,-1.6769 c -0.8055,-0.2107 -1.371,0.4804 -0.7886,0.9638 0.3257,0.2702 0.5918,0.2764 1.0621,0.025 0.7092,-0.3795 0.6041,-0.7591 -0.2735,-0.9886 z m -0.7978,2.9573 c -0.2126,-0.5539 -0.8883,-0.6268 -1.196,-0.129 -0.1175,0.19 0.035,0.5275 0.3396,0.75 0.9455,0.6913 1.2698,0.4562 0.8564,-0.621 z m -0.1929,-5.5699 c -0.2062,0 -0.5366,0.1073 -0.7342,0.2329 -0.5151,0.3275 0.04,1.0916 0.6289,0.8656 0.5654,-0.2169 0.6505,-1.1052 0.1053,-1.0985 z m -2.5643,6.1829 c -0.4665,-0.2884 -0.9356,0.2935 -0.7644,0.9482 0.1918,0.7335 0.5709,0.8697 0.805,0.2893 0.2369,-0.5867 0.2207,-1.076 -0.041,-1.2375 z m -0.061,-7.1121 c 0,-0.1515 -0.1193,-0.2754 -0.265,-0.2754 -0.4245,0 -0.6471,1.3071 -0.263,1.5444 0.4909,0.3035 0.9017,-0.02 0.6985,-0.5493 -0.094,-0.2443 -0.1705,-0.5682 -0.1705,-0.7197 z m -2.5394,6.0246 c -0.4506,0 -1.2277,1.1328 -0.9606,1.4 0.082,0.082 0.4302,0 0.7743,-0.1863 0.716,-0.3832 0.8435,-1.2137 0.1863,-1.2137 z m 0.1639,-4.8 c -0.1515,0 -0.5047,-0.088 -0.7849,-0.1955 -0.4398,-0.1688 -0.4622,-0.1073 -0.1639,0.45 0.3946,0.7373 1.2243,0.8698 1.2243,0.1955 0,-0.2475 -0.124,-0.45 -0.2755,-0.45 z m -1.8504,2.5582 c -0.6564,0.2083 -0.6621,0.2355 -0.1298,0.6247 0.4209,0.3077 0.657,0.3235 0.9688,0.065 0.5832,-0.484 0.01,-0.9578 -0.839,-0.6894 z m 10.0341,-24.1361 c -0.7268,-2.6141 -2.5068,-4.7107 -4.6015,-5.4199 -1.6272,-0.5508 -1.6503,-0.5501 -3.1539,0.096 -3.9412,1.6948 -5.5955,4.5025 -4.8259,8.1904 0.4295,2.0584 0.9792,3.0027 2.3433,4.026 1.2704,0.9529 2.9997,1.4747 4.9065,1.4804 1.2036,0 1.7433,-0.1651 2.55,-0.7969 1.5702,-1.2298 2.4054,-2.3916 2.8312,-3.938 0.5092,-1.8491 0.5124,-1.6168 -0.05,-3.6384 z m -0.9568,2.4814 c -0.3018,0.2731 -0.7068,0.4965 -0.9,0.4965 -0.427,0 -0.4298,0.055 -0.051,1.0501 0.5593,1.4713 -0.7454,2.513 -2.0855,1.6652 -0.322,-0.2037 -0.5747,-0.046 -0.9705,0.6046 -0.7017,1.1538 -1.597,1.1364 -2.3154,-0.045 -0.3337,-0.5488 -0.6441,-0.7928 -0.7633,-0.6 -0.3027,0.49 -1.8381,0.3898 -2.2853,-0.1491 -0.3035,-0.3658 -0.3175,-0.6752 -0.061,-1.3548 0.3078,-0.8157 0.2677,-0.9142 -0.5434,-1.3337 -1.183,-0.6117 -1.1909,-1.7547 -0.017,-2.4685 0.7387,-0.4493 0.8202,-0.6261 0.5837,-1.2656 -0.1776,-0.48 -0.1596,-0.997 0.051,-1.4589 0.2777,-0.6094 0.4692,-0.687 1.2913,-0.5232 0.5307,0.1058 1.0126,0.3313 1.0704,0.5012 0.058,0.1699 0.3279,-0.1369 0.6,-0.6818 0.6752,-1.3518 1.8047,-1.3708 2.4691,-0.042 0.3506,0.7017 0.5852,0.8788 0.9,0.6796 1.2967,-0.8207 2.7409,0.2785 2.0534,1.5631 -0.2993,0.5592 -0.2235,0.7355 0.5894,1.3717 1.0708,0.838 1.158,1.2899 0.3843,1.9901 z m -1.1503,-1.3221 c -0.5447,-0.2071 -0.8978,-0.2047 -1.11,0.01 -0.4964,0.4965 0.2485,1.0164 1.1369,0.7935 0.9786,-0.2456 0.9728,-0.4209 -0.027,-0.8009 z m -0.8832,2.8931 c -0.221,-0.5759 -1.3179,-0.6364 -1.3179,-0.073 0,0.221 0.3375,0.5556 0.75,0.7436 0.7606,0.3465 0.8967,0.1858 0.5679,-0.6709 z m -0.093,-5.8745 c -0.6708,0 -1.2245,0.4069 -1.2245,0.9 0,0.7384 0.8177,0.989 1.1829,0.3625 0.3788,-0.6497 0.399,-1.2625 0.042,-1.2625 z m -2.8568,6.3 c -0.5932,0 -0.8436,0.4882 -0.6168,1.2027 0.2341,0.7377 0.6588,0.7742 0.8423,0.072 0.2578,-0.9865 0.2066,-1.275 -0.2255,-1.275 z m -0.1677,-7.35 c -0.165,-0.102 -0.3018,-0.076 -0.3042,0.057 0,0.1335 -0.086,0.5464 -0.185,0.9177 -0.133,0.4962 -0.052,0.675 0.3042,0.675 0.5414,0 0.6913,-1.3371 0.185,-1.65 z m -2.2454,6.3432 c -0.2651,-0.1017 -0.5786,0.078 -0.7744,0.4436 -0.4044,0.7557 -0.219,0.9794 0.5971,0.7203 0.7219,-0.2291 0.8264,-0.9148 0.1773,-1.1639 z m -0.2296,-4.9679 c -0.8343,-0.3156 -0.9324,-0.2362 -0.6823,0.5521 0.2283,0.7187 1.3573,0.8543 1.3573,0.1629 0,-0.2528 -0.3037,-0.5746 -0.675,-0.715 z m -1.1073,2.6747 c -0.6854,0 -1.066,0.473 -0.6082,0.7558 0.4077,0.252 1.1905,-0.042 1.1905,-0.4464 0,-0.1702 -0.262,-0.3094 -0.5823,-0.3094 z m 7.5704,40.2 c -0.847,2.317 -4.4789,2.7277 -6.0834,0.6878 -1.5307,-1.946 0.1109,-5.1878 2.627,-5.1878 2.4861,0 4.258,2.3069 3.4564,4.5 z m -3.0566,-2.6473 c -1.1769,-0.1124 -1.5203,0.2651 -1.5269,1.6787 -0.01,1.2159 1.0156,1.8464 2.0738,1.2802 0.5398,-0.289 0.6382,-0.5698 0.5628,-1.6059 -0.086,-1.1873 -0.1467,-1.261 -1.1097,-1.353 z m 1.1966,-49.6808 c -0.07,0.071 -0.4224,0.1281 -0.7819,0.1281 -0.5936,0 -0.6985,-0.2683 -1.1385,-2.9145 -0.5195,-3.124 -0.4524,-3.3716 0.9173,-3.3809 0.3713,0 0.6867,0.1641 0.7011,0.3704 0.014,0.2062 0.117,1.5661 0.2281,3.0219 0.1111,1.4557 0.1444,2.7045 0.074,2.775 z m -4.1297,0.5996 c -0.4409,0.4086 -1.1497,0.8185 -1.575,0.9108 -0.4254,0.092 -1.2111,0.3891 -1.7458,0.6596 -0.8953,0.4527 -1.011,0.4533 -1.457,0.01 -0.446,-0.4461 -0.5542,-0.4454 -1.3614,0.01 -0.6609,0.3713 -0.8384,0.6509 -0.7206,1.1348 0.1113,0.4572 -0.056,0.7815 -0.5822,1.1261 l -0.7385,0.4839 -0.5863,-2.0261 c -0.3225,-1.1143 -0.6517,-2.6028 -0.7314,-3.3076 -0.1334,-1.1799 -0.075,-1.318 0.7417,-1.7401 0.8567,-0.443 0.9345,-0.4233 2.3028,0.581 0.7788,0.5718 1.6639,1.3134 1.9668,1.6482 0.3919,0.433 0.6933,0.5322 1.0447,0.3437 0.2715,-0.1458 0.8651,-0.3432 1.3188,-0.4388 1.3749,-0.2897 1.0347,-1.0624 -0.4678,-1.0624 -1.4169,0 -2.1472,-0.4137 -2.4322,-1.3779 -0.264,-0.8934 0.8136,-2.1347 2.2186,-2.5557 1.4585,-0.4369 2.1796,-0.1885 2.0524,0.7072 -0.072,0.5063 -0.3441,0.7141 -1.0828,0.8264 -1.4903,0.2265 -1.2994,0.7286 0.349,0.9179 2.2964,0.2637 2.998,1.7525 1.4862,3.1536 z m -6.9983,-0.4715 c -0.527,-0.282 -0.6,-0.2282 -0.6,0.442 0,0.688 0.059,0.7262 0.6,0.3884 0.33,-0.2061 0.6,-0.405 0.6,-0.442 0,-0.037 -0.27,-0.2118 -0.6,-0.3884 z m 6.1071,50.25 c -0.4205,1.32 -0.8537,2.4952 -0.9626,2.6117 -0.3699,0.3955 -2.7609,-0.4361 -3.6548,-1.2711 -1.1757,-1.0984 -1.1721,-2.1639 0.01,-3.0381 0.758,-0.5604 0.9,-0.8695 0.9,-1.9589 0,-0.7115 0.1014,-1.2906 0.225,-1.287 0.6679,0.02 1.5475,1.1482 1.6316,2.0934 0.104,1.1696 0.6047,1.3113 0.8569,0.2427 0.09,-0.381 0.3263,-0.6792 0.525,-0.6627 1.5338,0.1273 1.5139,-0.011 0.4688,3.27 z m -2.6665,-0.395 c -0.9255,0.1157 -1.0739,0.5154 -0.3572,0.9623 0.4132,0.2576 0.5983,0.2312 0.8204,-0.1173 0.4638,-0.7277 0.3443,-0.9459 -0.4632,-0.845 z m -4.8163,-3.955 c -0.8945,1.2375 -1.7371,2.2871 -1.8726,2.3324 -0.5059,0.1693 -3.1294,-2.1449 -3.5367,-3.1198 -0.3608,-0.8633 -0.3622,-1.1584 -0.01,-2.0013 0.9228,-2.2085 3.4755,-2.6789 5.623,-1.0363 0.7012,0.5362 1.308,1.11 1.3487,1.275 0.041,0.165 -0.6579,1.3125 -1.5523,2.55 z m -1.7491,-2.9475 c -0.9288,-0.1093 -1.9752,0.6576 -1.9752,1.4475 0,0.2788 0.252,0.735 0.5598,1.0137 0.5319,0.4813 0.6079,0.4521 1.5156,-0.5817 1.0987,-1.2512 1.0725,-1.7415 -0.1002,-1.8795 z m -0.3514,-38.9496 c -0.714,1.0506 -0.738,1.1843 -0.3,1.6682 0.6485,0.7166 0.6033,0.904 -0.5395,2.2389 -0.8423,0.9838 -1.0828,1.1119 -1.5849,0.8432 -0.4997,-0.2673 -0.6722,-0.1802 -1.1092,0.5594 -0.3998,0.6767 -0.4437,1.0138 -0.1932,1.4817 0.3276,0.6124 -0.035,1.8057 -0.5488,1.8057 -0.2604,0 -3.0904,-3.6908 -3.6206,-4.722 -0.277,-0.5387 -0.2477,-0.8212 0.148,-1.425 0.2714,-0.4142 0.5791,-0.752 0.6839,-0.7507 0.2966,0 4.6188,1.092 5.2905,1.3321 0.5581,0.1996 0.5636,0.1846 0.079,-0.2149 -0.2864,-0.2362 -1.2009,-1.0656 -2.0322,-1.8432 l -1.5113,-1.4137 0.619,-0.8694 c 0.932,-1.3087 2.2093,-2.0932 3.4088,-2.0932 0.8825,0 1.1516,0.1557 1.5287,0.8851 0.5952,1.1509 0.5917,1.1784 -0.3184,2.5178 z m -2.1936,-1.4625 c -0.7502,0.2381 -0.8325,1.0008 -0.1369,1.2677 0.3023,0.116 0.6514,-0.027 0.9011,-0.3683 0.5059,-0.6919 0.097,-1.1729 -0.7642,-0.8994 z m -3.5456,5.3748 c -0.094,0.094 0.01,0.3824 0.2211,0.6417 0.3085,0.3718 0.4415,0.3901 0.629,0.087 0.244,-0.3945 -0.525,-1.0533 -0.8501,-0.7282 z m 4.3158,32.8933 c -0.7147,0.3162 -2.1222,0.7668 -3.1276,1.0013 -1.7849,0.4164 -1.8434,0.4103 -2.4741,-0.261 -0.6245,-0.6648 -0.629,-0.7209 -0.1374,-1.6932 0.2797,-0.5531 1.0559,-1.7393 1.7251,-2.636 l 1.2166,-1.6304 -2.2874,1.2554 c -1.258,0.6904 -2.4049,1.2554 -2.5484,1.2554 -0.385,0 -1.576,-2.5208 -1.7775,-3.7626 -0.133,-0.8191 -0.021,-1.2835 0.4707,-1.9481 0.4162,-0.5629 0.4928,-0.8142 0.2158,-0.7079 -0.6391,0.2453 -1.6105,-0.384 -2.1231,-1.3754 -0.5149,-0.9955 -0.6044,-2.8771 -0.1505,-3.1577 0.5084,-0.3142 1.4863,0.1566 1.443,0.6948 -0.086,1.0636 0.066,1.8569 0.3544,1.8569 0.165,0 0.3,-0.3287 0.3,-0.7305 0,-0.4018 0.1573,-1.1105 0.3497,-1.575 0.1925,-0.4645 0.3613,-0.9345 0.375,-1.0445 0.014,-0.11 0.1481,-0.3125 0.2984,-0.45 0.1586,-0.1453 0.1826,-0.093 0.057,0.125 -0.2589,0.4499 0.5925,0.5234 0.8696,0.075 0.102,-0.165 0.4812,-0.298 0.8427,-0.2954 0.4745,0 0.546,0.075 0.2572,0.2582 -0.3206,0.2032 -0.3029,0.291 0.089,0.4412 0.6135,0.2354 1.3615,1.9861 1.3615,3.1863 0,0.8066 -0.1,0.9097 -0.8819,0.9097 -0.8025,0 -0.8903,-0.1013 -0.975,-1.125 -0.1151,-1.3917 -0.6323,-1.3642 -0.8682,0.046 -0.096,0.576 -0.3442,1.2507 -0.5504,1.4993 -0.3281,0.3953 -0.2504,0.4163 0.6183,0.1671 1.9069,-0.5469 3.108,0.3364 4.629,3.4041 0.8427,1.6997 0.9526,2.1374 0.656,2.6123 -0.2967,0.4751 -0.2417,0.6925 0.3288,1.2997 0.4347,0.4627 0.8973,0.6736 1.2658,0.5773 0.593,-0.1551 1.4776,0.3673 1.4776,0.8725 0,0.1541 -0.5847,0.5388 -1.2995,0.855 z m -2.7296,-1.4912 c -0.3418,-0.2837 -0.4916,-0.2392 -0.7369,0.2192 -0.2707,0.506 -0.2192,0.5583 0.429,0.4344 0.8618,-0.1647 0.8716,-0.1857 0.3079,-0.6536 z m -2.1673,-5.7687 c -1.0691,-1.1812 -3.0273,-0.2808 -2.6509,1.2189 0.1078,0.4297 0.2316,0.8169 0.2753,0.8605 0.1352,0.1352 2.8721,-1.145 2.8721,-1.3434 0,-0.1031 -0.2234,-0.4343 -0.4965,-0.736 z m 0.7081,-17.5321 c -0.3683,0.5034 -0.5136,0.4898 -2.7891,-0.2623 -1.3203,-0.4364 -2.5808,-0.9048 -2.8011,-1.041 -0.9344,-0.5775 0.5057,-3.6715 2.1081,-4.5291 0.7683,-0.4112 2.304,0.3969 2.5398,1.3364 0.098,0.3903 0.041,1.2077 -0.1275,1.8165 -0.2937,1.064 -0.2715,1.1187 0.5763,1.4142 0.9881,0.3445 1.0502,0.5038 0.4935,1.2653 z m -2.9572,-3.8947 c -0.4526,-0.2797 -1.2547,0.798 -0.8758,1.1769 0.3822,0.3822 1.2214,0.024 1.2214,-0.5216 0,-0.2429 -0.1556,-0.5378 -0.3456,-0.6553 z m 0.127,9.5532 c -0.1078,1.0306 -0.1951,1.125 -1.0404,1.125 h -0.9227 l 0.1937,-1.4129 c 0.1065,-0.7771 0.2936,-1.5055 0.4158,-1.6187 0.2727,-0.2526 1.5917,0.2214 1.5217,0.5469 -0.028,0.1291 -0.1034,0.7409 -0.1681,1.3597 z"
       id="path5092-2"
       inkscape:connector-curvature="0" />
  </g>
</svg>
